<mxfile host="app.diagrams.net" modified="2021-03-23T10:45:19.415Z" agent="5.0 (Macintosh; Intel Mac OS X 10_15_6) AppleWebKit/537.36 (KHTML, like Gecko) Chrome/89.0.4389.90 Safari/537.36" etag="cZ-eQk-0juLsGNryfvov" version="14.4.6" type="github">
  <diagram id="9dMJemvoK3SUcXrxnUzU" name="Page-1">
    <mxGraphModel dx="2804" dy="1273" grid="1" gridSize="10" guides="1" tooltips="1" connect="1" arrows="1" fold="1" page="1" pageScale="1" pageWidth="827" pageHeight="1169" math="0" shadow="0">
      <root>
        <mxCell id="0" />
        <mxCell id="1" parent="0" />
        <mxCell id="db7fz8IDNrDX2FohNWl7-6" value="ServerNode" style="ellipse;whiteSpace=wrap;html=1;aspect=fixed;fillColor=#dae8fc;strokeColor=#6c8ebf;" parent="1" vertex="1">
          <mxGeometry x="557" y="380" width="70" height="70" as="geometry" />
        </mxCell>
        <mxCell id="db7fz8IDNrDX2FohNWl7-3" value="南方机房" style="shape=process;whiteSpace=wrap;html=1;backgroundOutline=1;fillColor=#ffe6cc;strokeColor=#d79b00;" parent="1" vertex="1">
          <mxGeometry x="1210" y="140" width="120" height="60" as="geometry" />
        </mxCell>
        <mxCell id="db7fz8IDNrDX2FohNWl7-4" value="北方机房" style="shape=process;whiteSpace=wrap;html=1;backgroundOutline=1;fillColor=#f5f5f5;strokeColor=#666666;fontColor=#333333;" parent="1" vertex="1">
          <mxGeometry x="-120" y="140" width="120" height="60" as="geometry" />
        </mxCell>
        <mxCell id="db7fz8IDNrDX2FohNWl7-8" value="ServerNode" style="ellipse;whiteSpace=wrap;html=1;aspect=fixed;fillColor=#dae8fc;strokeColor=#6c8ebf;" parent="1" vertex="1">
          <mxGeometry x="440" y="380" width="70" height="70" as="geometry" />
        </mxCell>
        <mxCell id="db7fz8IDNrDX2FohNWl7-9" value="ServerNode" style="ellipse;whiteSpace=wrap;html=1;aspect=fixed;fillColor=#dae8fc;strokeColor=#6c8ebf;" parent="1" vertex="1">
          <mxGeometry x="340" y="380" width="70" height="70" as="geometry" />
        </mxCell>
        <mxCell id="db7fz8IDNrDX2FohNWl7-10" value="ServerNode" style="ellipse;whiteSpace=wrap;html=1;aspect=fixed;fillColor=#dae8fc;strokeColor=#6c8ebf;" parent="1" vertex="1">
          <mxGeometry x="240" y="380" width="70" height="70" as="geometry" />
        </mxCell>
        <mxCell id="db7fz8IDNrDX2FohNWl7-11" value="" style="endArrow=classic;startArrow=classic;html=1;exitX=1;exitY=0.5;exitDx=0;exitDy=0;" parent="1" source="db7fz8IDNrDX2FohNWl7-4" target="db7fz8IDNrDX2FohNWl7-3" edge="1">
          <mxGeometry width="50" height="50" relative="1" as="geometry">
            <mxPoint x="270" y="410" as="sourcePoint" />
            <mxPoint x="320" y="360" as="targetPoint" />
          </mxGeometry>
        </mxCell>
        <mxCell id="db7fz8IDNrDX2FohNWl7-12" value="核心数据：比如用户、钱包、账单...等等" style="text;html=1;align=left;verticalAlign=middle;resizable=0;points=[];autosize=1;" parent="1" vertex="1">
          <mxGeometry x="10" y="140" width="230" height="20" as="geometry" />
        </mxCell>
        <mxCell id="db7fz8IDNrDX2FohNWl7-13" value="会做南北机房的互备，由于运营商网络代理问题，需要走专门的vip通道，不走公网（不需要ssl），一般只做数据的备份，业务层不走vip" style="text;html=1;align=left;verticalAlign=middle;resizable=0;points=[];autosize=1;" parent="1" vertex="1">
          <mxGeometry x="270" y="140" width="730" height="20" as="geometry" />
        </mxCell>
        <mxCell id="db7fz8IDNrDX2FohNWl7-31" value="" style="edgeStyle=orthogonalEdgeStyle;rounded=0;orthogonalLoop=1;jettySize=auto;html=1;entryX=0.5;entryY=0;entryDx=0;entryDy=0;exitX=1;exitY=0.3333333333333333;exitDx=0;exitDy=0;exitPerimeter=0;" parent="1" source="db7fz8IDNrDX2FohNWl7-15" target="db7fz8IDNrDX2FohNWl7-27" edge="1">
          <mxGeometry relative="1" as="geometry">
            <mxPoint x="-20" y="490" as="targetPoint" />
          </mxGeometry>
        </mxCell>
        <mxCell id="db7fz8IDNrDX2FohNWl7-32" value="" style="edgeStyle=orthogonalEdgeStyle;rounded=0;orthogonalLoop=1;jettySize=auto;html=1;entryX=0.989;entryY=0.53;entryDx=0;entryDy=0;entryPerimeter=0;exitX=0;exitY=0.3333333333333333;exitDx=0;exitDy=0;exitPerimeter=0;" parent="1" source="db7fz8IDNrDX2FohNWl7-15" target="db7fz8IDNrDX2FohNWl7-112" edge="1">
          <mxGeometry relative="1" as="geometry">
            <mxPoint x="-91.47000000000003" y="426.24" as="targetPoint" />
            <Array as="points">
              <mxPoint x="-70" y="540" />
              <mxPoint x="-70" y="426" />
              <mxPoint x="-112" y="426" />
            </Array>
          </mxGeometry>
        </mxCell>
        <mxCell id="db7fz8IDNrDX2FohNWl7-15" value="用户" style="shape=umlActor;verticalLabelPosition=bottom;verticalAlign=top;html=1;outlineConnect=0;align=left;" parent="1" vertex="1">
          <mxGeometry x="-60" y="520" width="30" height="60" as="geometry" />
        </mxCell>
        <mxCell id="db7fz8IDNrDX2FohNWl7-23" value="用户通过域名解析&lt;br&gt;从DNS服务器&lt;br&gt;解析出一个ip地址" style="text;html=1;align=left;verticalAlign=middle;resizable=0;points=[];autosize=1;" parent="1" vertex="1">
          <mxGeometry x="-197" y="510" width="110" height="50" as="geometry" />
        </mxCell>
        <mxCell id="db7fz8IDNrDX2FohNWl7-25" value="ServerNode" style="ellipse;whiteSpace=wrap;html=1;aspect=fixed;fillColor=#dae8fc;strokeColor=#6c8ebf;" parent="1" vertex="1">
          <mxGeometry x="50" y="380" width="70" height="70" as="geometry" />
        </mxCell>
        <mxCell id="db7fz8IDNrDX2FohNWl7-26" value="服务集群：内部有健康监测" style="text;html=1;align=center;verticalAlign=middle;resizable=0;points=[];autosize=1;" parent="1" vertex="1">
          <mxGeometry x="650" y="400" width="160" height="20" as="geometry" />
        </mxCell>
        <mxCell id="db7fz8IDNrDX2FohNWl7-56" value="" style="edgeStyle=orthogonalEdgeStyle;rounded=0;orthogonalLoop=1;jettySize=auto;html=1;" parent="1" source="db7fz8IDNrDX2FohNWl7-27" target="db7fz8IDNrDX2FohNWl7-25" edge="1">
          <mxGeometry relative="1" as="geometry" />
        </mxCell>
        <mxCell id="db7fz8IDNrDX2FohNWl7-57" style="edgeStyle=orthogonalEdgeStyle;rounded=0;orthogonalLoop=1;jettySize=auto;html=1;entryX=0.5;entryY=0;entryDx=0;entryDy=0;" parent="1" source="db7fz8IDNrDX2FohNWl7-27" target="db7fz8IDNrDX2FohNWl7-24" edge="1">
          <mxGeometry relative="1" as="geometry" />
        </mxCell>
        <mxCell id="db7fz8IDNrDX2FohNWl7-27" value="代理服务器" style="shape=dataStorage;whiteSpace=wrap;html=1;fixedSize=1;align=left;direction=north;fillColor=#fa6800;strokeColor=#C73500;fontColor=#ffffff;" parent="1" vertex="1">
          <mxGeometry x="100" y="220" width="65" height="70" as="geometry" />
        </mxCell>
        <mxCell id="db7fz8IDNrDX2FohNWl7-42" value="" style="edgeStyle=orthogonalEdgeStyle;rounded=0;orthogonalLoop=1;jettySize=auto;html=1;" parent="1" source="db7fz8IDNrDX2FohNWl7-29" target="db7fz8IDNrDX2FohNWl7-10" edge="1">
          <mxGeometry relative="1" as="geometry">
            <mxPoint x="255" y="340" as="targetPoint" />
          </mxGeometry>
        </mxCell>
        <mxCell id="db7fz8IDNrDX2FohNWl7-29" value="代理服务器" style="shape=dataStorage;whiteSpace=wrap;html=1;fixedSize=1;align=left;direction=north;fillColor=#fa6800;strokeColor=#C73500;fontColor=#ffffff;" parent="1" vertex="1">
          <mxGeometry x="290" y="220" width="65" height="70" as="geometry" />
        </mxCell>
        <mxCell id="db7fz8IDNrDX2FohNWl7-49" value="" style="edgeStyle=orthogonalEdgeStyle;rounded=0;orthogonalLoop=1;jettySize=auto;html=1;" parent="1" source="db7fz8IDNrDX2FohNWl7-30" target="db7fz8IDNrDX2FohNWl7-8" edge="1">
          <mxGeometry relative="1" as="geometry" />
        </mxCell>
        <mxCell id="db7fz8IDNrDX2FohNWl7-51" value="" style="edgeStyle=orthogonalEdgeStyle;rounded=0;orthogonalLoop=1;jettySize=auto;html=1;entryX=0.5;entryY=0;entryDx=0;entryDy=0;" parent="1" source="db7fz8IDNrDX2FohNWl7-30" target="db7fz8IDNrDX2FohNWl7-6" edge="1">
          <mxGeometry relative="1" as="geometry">
            <mxPoint x="530" y="330.0000000000002" as="targetPoint" />
          </mxGeometry>
        </mxCell>
        <mxCell id="db7fz8IDNrDX2FohNWl7-30" value="代理服务器" style="shape=dataStorage;whiteSpace=wrap;html=1;fixedSize=1;align=left;direction=north;size=20;fillColor=#fa6800;strokeColor=#C73500;fontColor=#ffffff;" parent="1" vertex="1">
          <mxGeometry x="500" y="220" width="65" height="70" as="geometry" />
        </mxCell>
        <mxCell id="db7fz8IDNrDX2FohNWl7-34" value="代理服务器解析到不同的机房服务集群" style="text;html=1;align=center;verticalAlign=middle;resizable=0;points=[];autosize=1;" parent="1" vertex="1">
          <mxGeometry x="700" y="240" width="220" height="20" as="geometry" />
        </mxCell>
        <mxCell id="db7fz8IDNrDX2FohNWl7-24" value="ServerNode" style="ellipse;whiteSpace=wrap;html=1;aspect=fixed;fillColor=#dae8fc;strokeColor=#6c8ebf;" parent="1" vertex="1">
          <mxGeometry x="150" y="380" width="70" height="70" as="geometry" />
        </mxCell>
        <mxCell id="db7fz8IDNrDX2FohNWl7-43" value="" style="edgeStyle=orthogonalEdgeStyle;rounded=0;orthogonalLoop=1;jettySize=auto;html=1;exitX=0;exitY=0.5;exitDx=0;exitDy=0;" parent="1" source="db7fz8IDNrDX2FohNWl7-29" target="db7fz8IDNrDX2FohNWl7-9" edge="1">
          <mxGeometry relative="1" as="geometry">
            <mxPoint x="292.5888235294117" y="310" as="sourcePoint" />
            <mxPoint x="282.5" y="419.9999999999998" as="targetPoint" />
          </mxGeometry>
        </mxCell>
        <mxCell id="db7fz8IDNrDX2FohNWl7-59" value="" style="shape=link;html=1;" parent="1" edge="1">
          <mxGeometry width="100" relative="1" as="geometry">
            <mxPoint x="-30" y="300" as="sourcePoint" />
            <mxPoint x="1040" y="300" as="targetPoint" />
          </mxGeometry>
        </mxCell>
        <mxCell id="db7fz8IDNrDX2FohNWl7-60" value="缓存代理服务器" style="text;html=1;align=center;verticalAlign=middle;resizable=0;points=[];autosize=1;" parent="1" vertex="1">
          <mxGeometry x="1060" y="290" width="100" height="20" as="geometry" />
        </mxCell>
        <mxCell id="db7fz8IDNrDX2FohNWl7-213" value="" style="edgeStyle=isometricEdgeStyle;rounded=0;orthogonalLoop=1;jettySize=auto;html=1;entryX=0;entryY=0;entryDx=22.5;entryDy=0;entryPerimeter=0;exitX=0.343;exitY=1.027;exitDx=0;exitDy=0;exitPerimeter=0;" parent="1" source="db7fz8IDNrDX2FohNWl7-64" target="db7fz8IDNrDX2FohNWl7-73" edge="1">
          <mxGeometry relative="1" as="geometry" />
        </mxCell>
        <mxCell id="db7fz8IDNrDX2FohNWl7-64" value="&lt;font style=&quot;font-size: 11px&quot;&gt;Memcache集群&lt;/font&gt;" style="ellipse;shape=doubleEllipse;whiteSpace=wrap;html=1;aspect=fixed;align=center;" parent="1" vertex="1">
          <mxGeometry x="100" y="540" width="80" height="80" as="geometry" />
        </mxCell>
        <mxCell id="db7fz8IDNrDX2FohNWl7-65" value="" style="shape=link;html=1;fillColor=#d5e8d4;strokeColor=#82b366;" parent="1" edge="1">
          <mxGeometry width="100" relative="1" as="geometry">
            <mxPoint x="-30" y="490" as="sourcePoint" />
            <mxPoint x="1310" y="490" as="targetPoint" />
          </mxGeometry>
        </mxCell>
        <mxCell id="db7fz8IDNrDX2FohNWl7-66" value="布隆过滤器：拦截一些非正常请求的攻击，在数据库不存在的key，直接返回出去" style="text;html=1;align=center;verticalAlign=middle;resizable=0;points=[];autosize=1;" parent="1" vertex="1">
          <mxGeometry x="595" y="470" width="440" height="20" as="geometry" />
        </mxCell>
        <mxCell id="db7fz8IDNrDX2FohNWl7-214" value="" style="edgeStyle=isometricEdgeStyle;rounded=0;orthogonalLoop=1;jettySize=auto;html=1;entryX=0;entryY=0;entryDx=22.5;entryDy=0;entryPerimeter=0;exitX=0.409;exitY=1.027;exitDx=0;exitDy=0;exitPerimeter=0;" parent="1" source="db7fz8IDNrDX2FohNWl7-68" target="db7fz8IDNrDX2FohNWl7-74" edge="1">
          <mxGeometry relative="1" as="geometry" />
        </mxCell>
        <mxCell id="db7fz8IDNrDX2FohNWl7-68" value="&lt;font style=&quot;font-size: 11px&quot;&gt;Memcache集群&lt;/font&gt;" style="ellipse;shape=doubleEllipse;whiteSpace=wrap;html=1;aspect=fixed;align=center;" parent="1" vertex="1">
          <mxGeometry x="290" y="540" width="80" height="80" as="geometry" />
        </mxCell>
        <mxCell id="db7fz8IDNrDX2FohNWl7-215" value="" style="edgeStyle=isometricEdgeStyle;rounded=0;orthogonalLoop=1;jettySize=auto;html=1;entryX=0.359;entryY=-0.013;entryDx=0;entryDy=0;entryPerimeter=0;exitX=0.401;exitY=0.998;exitDx=0;exitDy=0;exitPerimeter=0;" parent="1" source="db7fz8IDNrDX2FohNWl7-69" target="db7fz8IDNrDX2FohNWl7-75" edge="1">
          <mxGeometry relative="1" as="geometry" />
        </mxCell>
        <mxCell id="db7fz8IDNrDX2FohNWl7-69" value="&lt;font style=&quot;font-size: 11px&quot;&gt;Memcache集群&lt;/font&gt;" style="ellipse;shape=doubleEllipse;whiteSpace=wrap;html=1;aspect=fixed;align=center;" parent="1" vertex="1">
          <mxGeometry x="500" y="540" width="80" height="80" as="geometry" />
        </mxCell>
        <mxCell id="db7fz8IDNrDX2FohNWl7-70" value="利用hash环的虚拟节点，保证故障发生时快速的迁移，渐进式" style="text;html=1;align=center;verticalAlign=middle;resizable=0;points=[];autosize=1;" parent="1" vertex="1">
          <mxGeometry x="595" y="540" width="340" height="20" as="geometry" />
        </mxCell>
        <mxCell id="db7fz8IDNrDX2FohNWl7-71" value="对于特别热的key延长过期时间，然后业务层去异步更新缓存key，&lt;br&gt;防止击穿mc层，打到底比较薄弱的服务" style="text;html=1;align=left;verticalAlign=middle;resizable=0;points=[];autosize=1;" parent="1" vertex="1">
          <mxGeometry x="600" y="580" width="360" height="30" as="geometry" />
        </mxCell>
        <mxCell id="db7fz8IDNrDX2FohNWl7-72" value="GET请求" style="text;html=1;align=center;verticalAlign=middle;resizable=0;points=[];autosize=1;" parent="1" vertex="1">
          <mxGeometry x="50" y="510" width="60" height="20" as="geometry" />
        </mxCell>
        <mxCell id="db7fz8IDNrDX2FohNWl7-78" value="" style="edgeStyle=orthogonalEdgeStyle;rounded=0;orthogonalLoop=1;jettySize=auto;html=1;entryX=0.75;entryY=0;entryDx=0;entryDy=0;" parent="1" source="db7fz8IDNrDX2FohNWl7-73" target="db7fz8IDNrDX2FohNWl7-80" edge="1">
          <mxGeometry relative="1" as="geometry">
            <mxPoint x="140" y="830" as="targetPoint" />
          </mxGeometry>
        </mxCell>
        <mxCell id="db7fz8IDNrDX2FohNWl7-81" value="" style="edgeStyle=orthogonalEdgeStyle;rounded=0;orthogonalLoop=1;jettySize=auto;html=1;entryX=0.75;entryY=0;entryDx=0;entryDy=0;exitX=0;exitY=0;exitDx=32.5;exitDy=60;exitPerimeter=0;" parent="1" source="db7fz8IDNrDX2FohNWl7-73" target="db7fz8IDNrDX2FohNWl7-77" edge="1">
          <mxGeometry relative="1" as="geometry" />
        </mxCell>
        <mxCell id="db7fz8IDNrDX2FohNWl7-82" value="" style="edgeStyle=orthogonalEdgeStyle;rounded=0;orthogonalLoop=1;jettySize=auto;html=1;" parent="1" source="db7fz8IDNrDX2FohNWl7-73" target="db7fz8IDNrDX2FohNWl7-79" edge="1">
          <mxGeometry relative="1" as="geometry" />
        </mxCell>
        <mxCell id="db7fz8IDNrDX2FohNWl7-84" value="" style="edgeStyle=orthogonalEdgeStyle;rounded=0;orthogonalLoop=1;jettySize=auto;html=1;exitX=0;exitY=0;exitDx=32.5;exitDy=60;exitPerimeter=0;" parent="1" source="db7fz8IDNrDX2FohNWl7-74" target="db7fz8IDNrDX2FohNWl7-83" edge="1">
          <mxGeometry relative="1" as="geometry" />
        </mxCell>
        <mxCell id="db7fz8IDNrDX2FohNWl7-216" value="" style="edgeStyle=isometricEdgeStyle;rounded=0;orthogonalLoop=1;jettySize=auto;html=1;entryX=0.696;entryY=0.998;entryDx=0;entryDy=0;entryPerimeter=0;exitX=0;exitY=0;exitDx=45;exitDy=0;exitPerimeter=0;" parent="1" source="db7fz8IDNrDX2FohNWl7-73" target="db7fz8IDNrDX2FohNWl7-64" edge="1">
          <mxGeometry relative="1" as="geometry" />
        </mxCell>
        <mxCell id="db7fz8IDNrDX2FohNWl7-73" value="数据中台-mongodb" style="verticalLabelPosition=bottom;verticalAlign=top;html=1;shape=mxgraph.basic.layered_rect;dx=10;outlineConnect=0;align=left;fillColor=#f5f5f5;strokeColor=#666666;fontColor=#333333;" parent="1" vertex="1">
          <mxGeometry x="90" y="690" width="100" height="60" as="geometry" />
        </mxCell>
        <mxCell id="db7fz8IDNrDX2FohNWl7-217" value="" style="edgeStyle=isometricEdgeStyle;rounded=0;orthogonalLoop=1;jettySize=auto;html=1;exitX=0;exitY=0;exitDx=45;exitDy=0;exitPerimeter=0;entryX=0.732;entryY=0.983;entryDx=0;entryDy=0;entryPerimeter=0;" parent="1" source="db7fz8IDNrDX2FohNWl7-74" target="db7fz8IDNrDX2FohNWl7-68" edge="1">
          <mxGeometry relative="1" as="geometry" />
        </mxCell>
        <mxCell id="db7fz8IDNrDX2FohNWl7-74" value="数据中台-mongodb" style="verticalLabelPosition=bottom;verticalAlign=top;html=1;shape=mxgraph.basic.layered_rect;dx=10;outlineConnect=0;align=left;fillColor=#f5f5f5;strokeColor=#666666;fontColor=#333333;" parent="1" vertex="1">
          <mxGeometry x="290" y="690" width="100" height="60" as="geometry" />
        </mxCell>
        <mxCell id="db7fz8IDNrDX2FohNWl7-218" value="" style="edgeStyle=isometricEdgeStyle;rounded=0;orthogonalLoop=1;jettySize=auto;html=1;exitX=0;exitY=0;exitDx=67.5;exitDy=0;exitPerimeter=0;entryX=0.607;entryY=1.013;entryDx=0;entryDy=0;entryPerimeter=0;" parent="1" source="db7fz8IDNrDX2FohNWl7-75" target="db7fz8IDNrDX2FohNWl7-69" edge="1">
          <mxGeometry relative="1" as="geometry" />
        </mxCell>
        <mxCell id="db7fz8IDNrDX2FohNWl7-75" value="数据中台-mongodb" style="verticalLabelPosition=bottom;verticalAlign=top;html=1;shape=mxgraph.basic.layered_rect;dx=10;outlineConnect=0;align=left;fillColor=#f5f5f5;strokeColor=#666666;fontColor=#333333;" parent="1" vertex="1">
          <mxGeometry x="495" y="690" width="100" height="60" as="geometry" />
        </mxCell>
        <mxCell id="db7fz8IDNrDX2FohNWl7-77" value="上游接口" style="shape=document;whiteSpace=wrap;html=1;boundedLbl=1;align=left;fillColor=#ffe6cc;strokeColor=#d79b00;" parent="1" vertex="1">
          <mxGeometry x="60" y="820" width="70" height="50" as="geometry" />
        </mxCell>
        <mxCell id="db7fz8IDNrDX2FohNWl7-79" value="上游接口" style="shape=document;whiteSpace=wrap;html=1;boundedLbl=1;align=left;fillColor=#ffe6cc;strokeColor=#d79b00;" parent="1" vertex="1">
          <mxGeometry x="340" y="820" width="70" height="50" as="geometry" />
        </mxCell>
        <mxCell id="db7fz8IDNrDX2FohNWl7-80" value="上游接口" style="shape=document;whiteSpace=wrap;html=1;boundedLbl=1;align=left;fillColor=#ffe6cc;strokeColor=#d79b00;" parent="1" vertex="1">
          <mxGeometry x="487" y="820" width="70" height="50" as="geometry" />
        </mxCell>
        <mxCell id="db7fz8IDNrDX2FohNWl7-83" value="上游接口" style="shape=document;whiteSpace=wrap;html=1;boundedLbl=1;align=left;fillColor=#ffe6cc;strokeColor=#d79b00;" parent="1" vertex="1">
          <mxGeometry x="200" y="820" width="70" height="50" as="geometry" />
        </mxCell>
        <mxCell id="db7fz8IDNrDX2FohNWl7-85" value="通过内网网关代理访问到上游接口" style="text;html=1;align=center;verticalAlign=middle;resizable=0;points=[];autosize=1;" parent="1" vertex="1">
          <mxGeometry x="610" y="770" width="200" height="20" as="geometry" />
        </mxCell>
        <mxCell id="db7fz8IDNrDX2FohNWl7-91" value="" style="edgeStyle=elbowEdgeStyle;elbow=horizontal;endArrow=classic;html=1;exitX=1;exitY=0.5;exitDx=0;exitDy=0;entryX=-0.075;entryY=0.612;entryDx=0;entryDy=0;entryPerimeter=0;" parent="1" source="db7fz8IDNrDX2FohNWl7-77" target="db7fz8IDNrDX2FohNWl7-101" edge="1">
          <mxGeometry width="50" height="50" relative="1" as="geometry">
            <mxPoint x="310" y="800" as="sourcePoint" />
            <mxPoint x="230" y="990" as="targetPoint" />
          </mxGeometry>
        </mxCell>
        <mxCell id="db7fz8IDNrDX2FohNWl7-92" value="" style="edgeStyle=elbowEdgeStyle;elbow=horizontal;endArrow=classic;html=1;exitX=0.686;exitY=0.7;exitDx=0;exitDy=0;exitPerimeter=0;entryX=1.007;entryY=0.097;entryDx=0;entryDy=0;entryPerimeter=0;" parent="1" source="db7fz8IDNrDX2FohNWl7-83" target="db7fz8IDNrDX2FohNWl7-101" edge="1">
          <mxGeometry width="50" height="50" relative="1" as="geometry">
            <mxPoint x="310" y="800" as="sourcePoint" />
            <mxPoint x="260" y="980" as="targetPoint" />
            <Array as="points">
              <mxPoint x="270" y="990" />
            </Array>
          </mxGeometry>
        </mxCell>
        <mxCell id="db7fz8IDNrDX2FohNWl7-93" value="" style="edgeStyle=elbowEdgeStyle;elbow=horizontal;endArrow=classic;html=1;exitX=0;exitY=0.25;exitDx=0;exitDy=0;" parent="1" source="db7fz8IDNrDX2FohNWl7-79" target="db7fz8IDNrDX2FohNWl7-101" edge="1">
          <mxGeometry width="50" height="50" relative="1" as="geometry">
            <mxPoint x="310" y="800" as="sourcePoint" />
            <mxPoint x="270" y="970" as="targetPoint" />
          </mxGeometry>
        </mxCell>
        <mxCell id="db7fz8IDNrDX2FohNWl7-94" value="" style="edgeStyle=elbowEdgeStyle;elbow=vertical;endArrow=classic;html=1;exitX=0;exitY=0.75;exitDx=0;exitDy=0;" parent="1" source="db7fz8IDNrDX2FohNWl7-80" target="db7fz8IDNrDX2FohNWl7-101" edge="1">
          <mxGeometry width="50" height="50" relative="1" as="geometry">
            <mxPoint x="310" y="800" as="sourcePoint" />
            <mxPoint x="310" y="989" as="targetPoint" />
          </mxGeometry>
        </mxCell>
        <mxCell id="db7fz8IDNrDX2FohNWl7-95" value="通过hash，key，找到对应槽位，集群健康监测使用哨兵&lt;span style=&quot;font-family: &amp;#34;times new roman&amp;#34; ; font-size: 12pt&quot;&gt;Sentinel&lt;/span&gt;机制，哨兵也是一个集群，保证哨兵的可能性&lt;br&gt;key对应的槽位关系，存储在Zookpeer中，增删节点，使用自动平衡，渐进式数据迁移，迁移过程中旧节点处于阻塞状态，如果断点挂掉重启之后也将继续迁移&lt;br&gt;codis方案 ，槽位数量为1024，cluster官方集群方案，槽位数据为16*1024：16384，更加精细一些，槽位定位算法：使用crs32，对槽位数量取模&lt;br&gt;cluster的槽位迁移可以手动执行，有ui界面，还提供了自平衡工具，无须手动干预，就可以均衡集群负载&lt;br&gt;集群的代价：因为key已经被分配到不同的槽位，所以将不在支持事务，单个key的value也不能过大，负责会在迁移过程中卡顿，官方建议不超过1M&lt;br&gt;因为增加了Proxy中间代理层，网络开销要比单个Redis大，整体性能略微下降，但是不明显&lt;br&gt;&lt;br&gt;每一个redis子节点，都是一个完整的主从架构，发生单点故障时，可快速切换从节点为主节点，如果，没有可用的节点，整个集群将不可用&lt;br&gt;&lt;span&gt;不过redis 提供了一个可选参数&lt;/span&gt;&lt;span style=&quot;font-size: 12pt ; font-family: &amp;#34;times new roman&amp;#34; ; color: rgb(255 , 0 , 0)&quot;&gt;&amp;nbsp;cluster-require-full-coverage&amp;nbsp;&lt;/span&gt;&lt;span&gt;，在单节点挂掉的时候提供部分可用性，实现分区容错性的功能&lt;br&gt;&lt;/span&gt;网络抖动，也会频繁的导致主从切换，这个时候可以将参数&amp;nbsp;&lt;span style=&quot;color: rgb(255 , 0 , 0) ; font-family: &amp;#34;times new roman&amp;#34; ; font-size: 12pt&quot;&gt;cluster-slave-validity-factor&lt;/span&gt;设置的宽松一些，就可以防止频繁切换&lt;br&gt;&lt;div class=&quot;page&quot; title=&quot;Page 148&quot;&gt;&lt;div class=&quot;layoutArea&quot;&gt;&lt;div class=&quot;column&quot;&gt;&lt;br&gt;    &lt;/div&gt;&lt;br&gt;   &lt;/div&gt;&lt;br&gt;  &lt;/div&gt;" style="text;html=1;align=left;verticalAlign=middle;resizable=0;points=[];autosize=1;" parent="1" vertex="1">
          <mxGeometry x="330" y="930" width="850" height="190" as="geometry" />
        </mxCell>
        <mxCell id="db7fz8IDNrDX2FohNWl7-98" value="redis锁问题，单节点一般没什么麻烦，顶多服务不可用&lt;br&gt;单节点，也是一个小的主从架构，假如master节点还未同步&lt;br&gt;到salve的时候挂掉了，这时候salve切换成了主节点，这个&lt;br&gt;会导致，两个实例拿到了同一把锁&lt;br&gt;&lt;br&gt;用redlock去实现集群分布式锁，就比较麻烦了，得向超过&lt;br&gt;半数的redis节点发送setnx指令，过半节点返回成功就说明成功了&lt;br&gt;&lt;br&gt;设置好过期策略防止大量key同事过期，导致redis负载剧增，服务不可用：&lt;br&gt;分批过期，时间不要集中、或者使用惰性删除&lt;br&gt;&lt;br&gt;MySQL支持SSL，redis并不支持，所以如果有垮机房公网访问的情况下&lt;br&gt;需要使用spiped，ssl代理工具，官方推荐&lt;br&gt;redis5.0 后提供了 Stream消息队列，支持多播，持久化，不支持分区&lt;br&gt;分区可自己在代码上手动区分" style="text;html=1;align=center;verticalAlign=middle;resizable=0;points=[];autosize=1;" parent="1" vertex="1">
          <mxGeometry x="-280" y="880" width="410" height="220" as="geometry" />
        </mxCell>
        <mxCell id="db7fz8IDNrDX2FohNWl7-100" value="&lt;span style=&quot;font-family: &amp;#34;helvetica neue&amp;#34; , &amp;#34;helvetica&amp;#34; , &amp;#34;hiragino sans gb&amp;#34; , &amp;#34;microsoft yahei&amp;#34; , &amp;#34;arial&amp;#34; , sans-serif ; letter-spacing: 2px ; text-align: left ; word-spacing: 2px ; background-color: rgb(255 , 255 , 255)&quot;&gt;&lt;font style=&quot;font-size: 12px&quot;&gt;或者给热key缓存空值或者默认值&lt;/font&gt;&lt;/span&gt;" style="text;html=1;align=center;verticalAlign=middle;resizable=0;points=[];autosize=1;" parent="1" vertex="1">
          <mxGeometry x="595" y="500" width="220" height="20" as="geometry" />
        </mxCell>
        <mxCell id="db7fz8IDNrDX2FohNWl7-101" value="" style="aspect=fixed;html=1;points=[];align=center;image;fontSize=12;image=img/lib/mscae/Cache_Redis_Product.svg;" parent="1" vertex="1">
          <mxGeometry x="210" y="950" width="50" height="42" as="geometry" />
        </mxCell>
        <mxCell id="db7fz8IDNrDX2FohNWl7-102" value="" style="aspect=fixed;html=1;points=[];align=center;image;fontSize=12;image=img/lib/mscae/Cache_Redis_Product.svg;" parent="1" vertex="1">
          <mxGeometry x="180" y="992" width="50" height="42" as="geometry" />
        </mxCell>
        <mxCell id="db7fz8IDNrDX2FohNWl7-103" value="" style="aspect=fixed;html=1;points=[];align=center;image;fontSize=12;image=img/lib/mscae/Cache_Redis_Product.svg;" parent="1" vertex="1">
          <mxGeometry x="240" y="992" width="50" height="42" as="geometry" />
        </mxCell>
        <mxCell id="db7fz8IDNrDX2FohNWl7-104" value="Redis集群&lt;br&gt;" style="text;html=1;align=center;verticalAlign=middle;resizable=0;points=[];autosize=1;" parent="1" vertex="1">
          <mxGeometry x="200" y="1040" width="70" height="20" as="geometry" />
        </mxCell>
        <mxCell id="db7fz8IDNrDX2FohNWl7-112" value="" style="aspect=fixed;html=1;points=[];align=center;image;fontSize=12;image=img/lib/mscae/DNS.svg;" parent="1" vertex="1">
          <mxGeometry x="-270" y="370" width="110" height="110" as="geometry" />
        </mxCell>
        <mxCell id="db7fz8IDNrDX2FohNWl7-113" value="最近的最近的DNS服务器，根据就近解析，&lt;br&gt;轮询或者按照权重，解析出对应ip" style="text;html=1;align=left;verticalAlign=middle;resizable=0;points=[];autosize=1;" parent="1" vertex="1">
          <mxGeometry x="-440" y="520" width="240" height="30" as="geometry" />
        </mxCell>
        <mxCell id="db7fz8IDNrDX2FohNWl7-143" value="" style="aspect=fixed;html=1;points=[];align=center;image;fontSize=12;image=img/lib/mscae/Azure_Database_for_MySQL_servers.svg;" parent="1" vertex="1">
          <mxGeometry x="950" y="1500" width="38" height="50" as="geometry" />
        </mxCell>
        <mxCell id="db7fz8IDNrDX2FohNWl7-144" value="" style="aspect=fixed;html=1;points=[];align=center;image;fontSize=12;image=img/lib/azure2/databases/Azure_Database_MySQL_Server.svg;" parent="1" vertex="1">
          <mxGeometry x="920" y="1560" width="37.5" height="50" as="geometry" />
        </mxCell>
        <mxCell id="db7fz8IDNrDX2FohNWl7-153" value="" style="edgeStyle=isometricEdgeStyle;rounded=0;orthogonalLoop=1;jettySize=auto;html=1;" parent="1" source="db7fz8IDNrDX2FohNWl7-151" target="db7fz8IDNrDX2FohNWl7-152" edge="1">
          <mxGeometry relative="1" as="geometry" />
        </mxCell>
        <mxCell id="db7fz8IDNrDX2FohNWl7-156" value="" style="edgeStyle=isometricEdgeStyle;rounded=0;orthogonalLoop=1;jettySize=auto;html=1;entryX=0.25;entryY=1;entryDx=0;entryDy=0;" parent="1" source="db7fz8IDNrDX2FohNWl7-151" target="db7fz8IDNrDX2FohNWl7-30" edge="1">
          <mxGeometry relative="1" as="geometry" />
        </mxCell>
        <mxCell id="db7fz8IDNrDX2FohNWl7-151" value="用户" style="shape=umlActor;verticalLabelPosition=bottom;verticalAlign=top;html=1;outlineConnect=0;align=left;" parent="1" vertex="1">
          <mxGeometry x="1306" y="500" width="30" height="60" as="geometry" />
        </mxCell>
        <mxCell id="db7fz8IDNrDX2FohNWl7-152" value="" style="aspect=fixed;html=1;points=[];align=center;image;fontSize=12;image=img/lib/mscae/DNS.svg;" parent="1" vertex="1">
          <mxGeometry x="1400" y="370" width="110" height="110" as="geometry" />
        </mxCell>
        <mxCell id="db7fz8IDNrDX2FohNWl7-154" value="Post上行数据" style="text;html=1;align=center;verticalAlign=middle;resizable=0;points=[];autosize=1;" parent="1" vertex="1">
          <mxGeometry x="1151" y="510" width="90" height="20" as="geometry" />
        </mxCell>
        <mxCell id="db7fz8IDNrDX2FohNWl7-157" value="Post上行数据分两种" style="text;html=1;align=center;verticalAlign=middle;resizable=0;points=[];autosize=1;" parent="1" vertex="1">
          <mxGeometry x="1031" y="660" width="120" height="20" as="geometry" />
        </mxCell>
        <mxCell id="db7fz8IDNrDX2FohNWl7-158" value="" style="shape=curlyBracket;whiteSpace=wrap;html=1;rounded=1;align=left;size=0.5;" parent="1" vertex="1">
          <mxGeometry x="1150" y="620" width="20" height="120" as="geometry" />
        </mxCell>
        <mxCell id="db7fz8IDNrDX2FohNWl7-167" value="" style="edgeStyle=isometricEdgeStyle;rounded=0;orthogonalLoop=1;jettySize=auto;html=1;entryX=0.75;entryY=0;entryDx=0;entryDy=0;" parent="1" source="db7fz8IDNrDX2FohNWl7-160" target="db7fz8IDNrDX2FohNWl7-165" edge="1">
          <mxGeometry relative="1" as="geometry" />
        </mxCell>
        <mxCell id="db7fz8IDNrDX2FohNWl7-160" value="无状态：类似于：发帖、点赞、关注...等等的用户行为数据" style="text;html=1;align=center;verticalAlign=middle;resizable=0;points=[];autosize=1;" parent="1" vertex="1">
          <mxGeometry x="1180" y="630" width="330" height="20" as="geometry" />
        </mxCell>
        <mxCell id="db7fz8IDNrDX2FohNWl7-168" value="" style="edgeStyle=isometricEdgeStyle;rounded=0;orthogonalLoop=1;jettySize=auto;html=1;entryX=0.5;entryY=0;entryDx=0;entryDy=0;" parent="1" source="db7fz8IDNrDX2FohNWl7-161" target="db7fz8IDNrDX2FohNWl7-162" edge="1">
          <mxGeometry relative="1" as="geometry" />
        </mxCell>
        <mxCell id="db7fz8IDNrDX2FohNWl7-161" value="有状态：类似于：用户钱包、用户登录注册等接口，需要同步返回当下的状态" style="text;html=1;align=center;verticalAlign=middle;resizable=0;points=[];autosize=1;" parent="1" vertex="1">
          <mxGeometry x="1180" y="700" width="420" height="20" as="geometry" />
        </mxCell>
        <mxCell id="db7fz8IDNrDX2FohNWl7-162" value="直接走分布式服务，保证好服务的：隔离性、幂等性、原子性，即可" style="whiteSpace=wrap;html=1;align=left;" parent="1" vertex="1">
          <mxGeometry x="1330" y="790" width="120" height="60" as="geometry" />
        </mxCell>
        <mxCell id="db7fz8IDNrDX2FohNWl7-173" value="" style="edgeStyle=isometricEdgeStyle;rounded=0;orthogonalLoop=1;jettySize=auto;html=1;entryX=0.66;entryY=-0.032;entryDx=0;entryDy=0;entryPerimeter=0;" parent="1" source="db7fz8IDNrDX2FohNWl7-165" target="db7fz8IDNrDX2FohNWl7-170" edge="1">
          <mxGeometry relative="1" as="geometry" />
        </mxCell>
        <mxCell id="db7fz8IDNrDX2FohNWl7-165" value="无状态的行为数据，用户点赞、关注等数据，量会比较大，会先入消息中间件redis,&lt;br&gt;看业务量，可以分配多个核心，然后由底层服务去消费" style="whiteSpace=wrap;html=1;align=left;" parent="1" vertex="1">
          <mxGeometry x="1000" y="770" width="160" height="90" as="geometry" />
        </mxCell>
        <mxCell id="db7fz8IDNrDX2FohNWl7-169" value="" style="aspect=fixed;html=1;points=[];align=center;image;fontSize=12;image=img/lib/mscae/Cache_Redis_Product.svg;" parent="1" vertex="1">
          <mxGeometry x="1215.5" y="960" width="50" height="42" as="geometry" />
        </mxCell>
        <mxCell id="db7fz8IDNrDX2FohNWl7-170" value="" style="aspect=fixed;html=1;points=[];align=center;image;fontSize=12;image=img/lib/mscae/Cache_Redis_Product.svg;" parent="1" vertex="1">
          <mxGeometry x="1273" y="960" width="50" height="42" as="geometry" />
        </mxCell>
        <mxCell id="db7fz8IDNrDX2FohNWl7-171" value="" style="aspect=fixed;html=1;points=[];align=center;image;fontSize=12;image=img/lib/mscae/Cache_Redis_Product.svg;" parent="1" vertex="1">
          <mxGeometry x="1336" y="960" width="50" height="42" as="geometry" />
        </mxCell>
        <mxCell id="db7fz8IDNrDX2FohNWl7-172" value="" style="aspect=fixed;html=1;points=[];align=center;image;fontSize=12;image=img/lib/mscae/Cache_Redis_Product.svg;" parent="1" vertex="1">
          <mxGeometry x="1400" y="960" width="50" height="42" as="geometry" />
        </mxCell>
        <mxCell id="db7fz8IDNrDX2FohNWl7-176" value="" style="shape=flexArrow;endArrow=classic;html=1;entryX=0.378;entryY=-0.019;entryDx=0;entryDy=0;entryPerimeter=0;" parent="1" target="db7fz8IDNrDX2FohNWl7-178" edge="1">
          <mxGeometry width="50" height="50" relative="1" as="geometry">
            <mxPoint x="1330" y="1010" as="sourcePoint" />
            <mxPoint x="1130" y="1089" as="targetPoint" />
            <Array as="points" />
          </mxGeometry>
        </mxCell>
        <mxCell id="db7fz8IDNrDX2FohNWl7-177" value="&lt;div style=&quot;text-align: left&quot;&gt;&lt;span&gt;由后台存储服务，去异步消费redis队列，落库&lt;/span&gt;&lt;/div&gt;&lt;div style=&quot;text-align: left&quot;&gt;&lt;span&gt;落库之后：&lt;/span&gt;&lt;/div&gt;&lt;div style=&quot;text-align: left&quot;&gt;&lt;span&gt;1. 构建redis缓存&lt;/span&gt;&lt;/div&gt;&lt;div style=&quot;text-align: left&quot;&gt;&lt;span&gt;2.通过kafka将数据同步到数据中台，存入mongodb&lt;/span&gt;&lt;/div&gt;&lt;div style=&quot;text-align: left&quot;&gt;&lt;span&gt;3. 服务器的日志，会通过syslog，推到kafka&lt;/span&gt;&lt;/div&gt;&lt;div style=&quot;text-align: left&quot;&gt;&lt;span&gt;4. kafka消费的服务器，消费kafka并写入clickhouse&lt;/span&gt;&lt;/div&gt;&lt;div style=&quot;text-align: left&quot;&gt;&lt;span&gt;5. dagger接入clickhouse，用于图形化展示服务健康情况、报警、数据观测等&lt;/span&gt;&lt;/div&gt;" style="text;html=1;align=center;verticalAlign=middle;resizable=0;points=[];autosize=1;" parent="1" vertex="1">
          <mxGeometry x="778.75" y="1160" width="420" height="100" as="geometry" />
        </mxCell>
        <mxCell id="db7fz8IDNrDX2FohNWl7-178" value="" style="aspect=fixed;html=1;points=[];align=center;image;fontSize=12;image=img/lib/azure2/azure_stack/Infrastructure_Backup.svg;" parent="1" vertex="1">
          <mxGeometry x="1180" y="1280" width="60" height="69" as="geometry" />
        </mxCell>
        <mxCell id="db7fz8IDNrDX2FohNWl7-179" value="" style="aspect=fixed;html=1;points=[];align=center;image;fontSize=12;image=img/lib/azure2/azure_stack/Infrastructure_Backup.svg;" parent="1" vertex="1">
          <mxGeometry x="1360" y="1280" width="60" height="69" as="geometry" />
        </mxCell>
        <mxCell id="db7fz8IDNrDX2FohNWl7-180" value="" style="aspect=fixed;html=1;points=[];align=center;image;fontSize=12;image=img/lib/azure2/azure_stack/Infrastructure_Backup.svg;" parent="1" vertex="1">
          <mxGeometry x="1268" y="1280" width="60" height="69" as="geometry" />
        </mxCell>
        <mxCell id="db7fz8IDNrDX2FohNWl7-192" value="" style="aspect=fixed;html=1;points=[];align=center;image;fontSize=12;image=img/lib/azure2/databases/Azure_Database_MySQL_Server.svg;" parent="1" vertex="1">
          <mxGeometry x="970" y="1560" width="37.5" height="50" as="geometry" />
        </mxCell>
        <mxCell id="db7fz8IDNrDX2FohNWl7-193" value="" style="aspect=fixed;html=1;points=[];align=center;image;fontSize=12;image=img/lib/mscae/Azure_Database_for_MySQL_servers.svg;" parent="1" vertex="1">
          <mxGeometry x="1160.75" y="1500" width="38" height="50" as="geometry" />
        </mxCell>
        <mxCell id="db7fz8IDNrDX2FohNWl7-194" value="" style="aspect=fixed;html=1;points=[];align=center;image;fontSize=12;image=img/lib/azure2/databases/Azure_Database_MySQL_Server.svg;" parent="1" vertex="1">
          <mxGeometry x="1142.5" y="1560" width="37.5" height="50" as="geometry" />
        </mxCell>
        <mxCell id="db7fz8IDNrDX2FohNWl7-195" value="" style="aspect=fixed;html=1;points=[];align=center;image;fontSize=12;image=img/lib/azure2/databases/Azure_Database_MySQL_Server.svg;" parent="1" vertex="1">
          <mxGeometry x="1191.25" y="1560" width="37.5" height="50" as="geometry" />
        </mxCell>
        <mxCell id="db7fz8IDNrDX2FohNWl7-196" value="" style="aspect=fixed;html=1;points=[];align=center;image;fontSize=12;image=img/lib/mscae/Azure_Database_for_MySQL_servers.svg;" parent="1" vertex="1">
          <mxGeometry x="1307.25" y="1500" width="38" height="50" as="geometry" />
        </mxCell>
        <mxCell id="db7fz8IDNrDX2FohNWl7-197" value="" style="aspect=fixed;html=1;points=[];align=center;image;fontSize=12;image=img/lib/azure2/databases/Azure_Database_MySQL_Server.svg;" parent="1" vertex="1">
          <mxGeometry x="1277.25" y="1560" width="37.5" height="50" as="geometry" />
        </mxCell>
        <mxCell id="db7fz8IDNrDX2FohNWl7-198" value="" style="aspect=fixed;html=1;points=[];align=center;image;fontSize=12;image=img/lib/azure2/databases/Azure_Database_MySQL_Server.svg;" parent="1" vertex="1">
          <mxGeometry x="1327.25" y="1560" width="37.5" height="50" as="geometry" />
        </mxCell>
        <mxCell id="db7fz8IDNrDX2FohNWl7-200" value="&lt;font style=&quot;font-size: 19px&quot;&gt;kafka&lt;/font&gt;" style="rounded=1;whiteSpace=wrap;html=1;strokeWidth=2;fillWeight=4;hachureGap=8;hachureAngle=45;fillColor=#1ba1e2;sketch=1;align=center;" parent="1" vertex="1">
          <mxGeometry x="973" y="1294.5" width="62" height="40" as="geometry" />
        </mxCell>
        <mxCell id="db7fz8IDNrDX2FohNWl7-202" value="" style="endArrow=classic;html=1;" parent="1" edge="1">
          <mxGeometry width="50" height="50" relative="1" as="geometry">
            <mxPoint x="1179" y="1320" as="sourcePoint" />
            <mxPoint x="1035" y="1320" as="targetPoint" />
          </mxGeometry>
        </mxCell>
        <mxCell id="db7fz8IDNrDX2FohNWl7-203" value="&lt;font style=&quot;font-size: 19px&quot;&gt;kafka&lt;/font&gt;" style="rounded=1;whiteSpace=wrap;html=1;strokeWidth=2;fillWeight=4;hachureGap=8;hachureAngle=45;fillColor=#1ba1e2;sketch=1;align=center;" parent="1" vertex="1">
          <mxGeometry x="973" y="1340" width="62" height="40" as="geometry" />
        </mxCell>
        <mxCell id="db7fz8IDNrDX2FohNWl7-204" value="syslog" style="text;html=1;align=center;verticalAlign=middle;resizable=0;points=[];autosize=1;" parent="1" vertex="1">
          <mxGeometry x="1065" y="1300" width="50" height="20" as="geometry" />
        </mxCell>
        <mxCell id="db7fz8IDNrDX2FohNWl7-205" value="" style="endArrow=classic;html=1;exitX=-0.037;exitY=0.778;exitDx=0;exitDy=0;exitPerimeter=0;entryX=1.033;entryY=0.618;entryDx=0;entryDy=0;entryPerimeter=0;" parent="1" source="db7fz8IDNrDX2FohNWl7-178" target="db7fz8IDNrDX2FohNWl7-203" edge="1">
          <mxGeometry width="50" height="50" relative="1" as="geometry">
            <mxPoint x="1000" y="1410" as="sourcePoint" />
            <mxPoint x="1050" y="1360" as="targetPoint" />
          </mxGeometry>
        </mxCell>
        <mxCell id="db7fz8IDNrDX2FohNWl7-206" value="coredate" style="text;html=1;align=center;verticalAlign=middle;resizable=0;points=[];autosize=1;" parent="1" vertex="1">
          <mxGeometry x="1070" y="1349" width="60" height="20" as="geometry" />
        </mxCell>
        <mxCell id="db7fz8IDNrDX2FohNWl7-207" value="" style="edgeStyle=segmentEdgeStyle;endArrow=classic;html=1;exitX=0;exitY=0.5;exitDx=0;exitDy=0;entryX=0.85;entryY=1.167;entryDx=0;entryDy=0;entryPerimeter=0;" parent="1" source="db7fz8IDNrDX2FohNWl7-203" target="db7fz8IDNrDX2FohNWl7-75" edge="1">
          <mxGeometry width="50" height="50" relative="1" as="geometry">
            <mxPoint x="650" y="1150" as="sourcePoint" />
            <mxPoint x="700" y="1100" as="targetPoint" />
          </mxGeometry>
        </mxCell>
        <mxCell id="db7fz8IDNrDX2FohNWl7-209" value="" style="aspect=fixed;html=1;points=[];align=center;image;fontSize=12;image=img/lib/azure2/databases/Instance_Pools.svg;" parent="1" vertex="1">
          <mxGeometry x="677.5" y="1285" width="65" height="64" as="geometry" />
        </mxCell>
        <mxCell id="db7fz8IDNrDX2FohNWl7-210" value="" style="endArrow=classic;html=1;entryX=1.039;entryY=0.581;entryDx=0;entryDy=0;entryPerimeter=0;" parent="1" target="db7fz8IDNrDX2FohNWl7-209" edge="1">
          <mxGeometry width="50" height="50" relative="1" as="geometry">
            <mxPoint x="960" y="1322" as="sourcePoint" />
            <mxPoint x="900" y="1510" as="targetPoint" />
          </mxGeometry>
        </mxCell>
        <mxCell id="db7fz8IDNrDX2FohNWl7-211" value="" style="endArrow=classic;html=1;exitX=-0.038;exitY=0.609;exitDx=0;exitDy=0;exitPerimeter=0;entryX=1.009;entryY=0.614;entryDx=0;entryDy=0;entryPerimeter=0;" parent="1" source="db7fz8IDNrDX2FohNWl7-209" target="db7fz8IDNrDX2FohNWl7-208" edge="1">
          <mxGeometry width="50" height="50" relative="1" as="geometry">
            <mxPoint x="340" y="1140" as="sourcePoint" />
            <mxPoint x="390" y="1090" as="targetPoint" />
          </mxGeometry>
        </mxCell>
        <mxCell id="db7fz8IDNrDX2FohNWl7-212" value="Grafana或者dagger" style="text;html=1;align=center;verticalAlign=middle;resizable=0;points=[];autosize=1;" parent="1" vertex="1">
          <mxGeometry x="380" y="1292.25" width="120" height="20" as="geometry" />
        </mxCell>
        <mxCell id="db7fz8IDNrDX2FohNWl7-219" value="中台若无数据，会通过，上游接口去回源" style="text;html=1;align=center;verticalAlign=middle;resizable=0;points=[];autosize=1;" parent="1" vertex="1">
          <mxGeometry x="-150" y="710" width="230" height="20" as="geometry" />
        </mxCell>
        <mxCell id="db7fz8IDNrDX2FohNWl7-221" value="" style="endArrow=classic;html=1;exitX=0.25;exitY=0;exitDx=0;exitDy=0;entryX=0;entryY=0;entryDx=5;entryDy=55;entryPerimeter=0;" parent="1" source="db7fz8IDNrDX2FohNWl7-77" target="db7fz8IDNrDX2FohNWl7-73" edge="1">
          <mxGeometry width="50" height="50" relative="1" as="geometry">
            <mxPoint x="300" y="950" as="sourcePoint" />
            <mxPoint x="350" y="900" as="targetPoint" />
          </mxGeometry>
        </mxCell>
        <mxCell id="db7fz8IDNrDX2FohNWl7-222" value="" style="endArrow=classic;html=1;exitX=0.75;exitY=0;exitDx=0;exitDy=0;entryX=0;entryY=0;entryDx=10;entryDy=60;entryPerimeter=0;" parent="1" source="db7fz8IDNrDX2FohNWl7-83" target="db7fz8IDNrDX2FohNWl7-74" edge="1">
          <mxGeometry width="50" height="50" relative="1" as="geometry">
            <mxPoint x="300" y="950" as="sourcePoint" />
            <mxPoint x="350" y="900" as="targetPoint" />
          </mxGeometry>
        </mxCell>
        <mxCell id="db7fz8IDNrDX2FohNWl7-223" value="" style="endArrow=classic;html=1;entryX=0;entryY=0;entryDx=55;entryDy=60;entryPerimeter=0;exitX=0.25;exitY=0;exitDx=0;exitDy=0;" parent="1" source="db7fz8IDNrDX2FohNWl7-79" target="db7fz8IDNrDX2FohNWl7-74" edge="1">
          <mxGeometry width="50" height="50" relative="1" as="geometry">
            <mxPoint x="300" y="950" as="sourcePoint" />
            <mxPoint x="350" y="900" as="targetPoint" />
          </mxGeometry>
        </mxCell>
        <mxCell id="db7fz8IDNrDX2FohNWl7-224" value="" style="endArrow=classic;html=1;entryX=0;entryY=0;entryDx=32.5;entryDy=60;entryPerimeter=0;exitX=0.5;exitY=0;exitDx=0;exitDy=0;" parent="1" source="db7fz8IDNrDX2FohNWl7-80" target="db7fz8IDNrDX2FohNWl7-75" edge="1">
          <mxGeometry width="50" height="50" relative="1" as="geometry">
            <mxPoint x="300" y="950" as="sourcePoint" />
            <mxPoint x="350" y="900" as="targetPoint" />
          </mxGeometry>
        </mxCell>
        <mxCell id="db7fz8IDNrDX2FohNWl7-225" value="Mysql架构层面，南北机房核心数据，做了垮地区的冷备，不用于业务读取，只用于容灾&lt;br&gt;单个业务在同一个区域，会在单机房内在两主的架构，用于热备，在不同机房也有冷备&lt;br&gt;热备：两主+主从主要保证服务的高可用；冷备：用于容灾，比如电缆被挖断等灾害事件" style="text;html=1;align=left;verticalAlign=middle;resizable=0;points=[];autosize=1;" parent="1" vertex="1">
          <mxGeometry x="455" y="1460" width="480" height="50" as="geometry" />
        </mxCell>
        <mxCell id="db7fz8IDNrDX2FohNWl7-227" value="Mysql业务层，&lt;b&gt;根据不同的业务场景做了分库，根据业务量决定了分表的方式&lt;br&gt;&lt;/b&gt;可以通过hash分表（一般hash为128张，2的整数倍）、&lt;br&gt;或者按时间(数据量按时间线性增长的话可以按时间去分区)、&lt;br&gt;或者按量来分表" style="text;html=1;align=left;verticalAlign=middle;resizable=0;points=[];autosize=1;" parent="1" vertex="1">
          <mxGeometry x="455" y="1525" width="420" height="60" as="geometry" />
        </mxCell>
        <mxCell id="db7fz8IDNrDX2FohNWl7-228" value="" style="shape=filledEdge;rounded=0;fixDash=1;endArrow=none;strokeWidth=10;fillColor=#ffffff;edgeStyle=orthogonalEdgeStyle;" parent="1" source="db7fz8IDNrDX2FohNWl7-193" target="db7fz8IDNrDX2FohNWl7-180" edge="1">
          <mxGeometry width="60" height="40" relative="1" as="geometry">
            <mxPoint x="760" y="1310" as="sourcePoint" />
            <mxPoint x="1220" y="1380" as="targetPoint" />
            <Array as="points">
              <mxPoint x="1260" y="1525" />
              <mxPoint x="1260" y="1315" />
            </Array>
          </mxGeometry>
        </mxCell>
        <mxCell id="db7fz8IDNrDX2FohNWl7-230" value="" style="shape=filledEdge;rounded=0;fixDash=1;endArrow=none;strokeWidth=10;fillColor=#ffffff;edgeStyle=orthogonalEdgeStyle;entryX=0.989;entryY=0.44;entryDx=0;entryDy=0;entryPerimeter=0;exitX=1.107;exitY=0.407;exitDx=0;exitDy=0;exitPerimeter=0;" parent="1" source="db7fz8IDNrDX2FohNWl7-196" target="db7fz8IDNrDX2FohNWl7-179" edge="1">
          <mxGeometry width="60" height="40" relative="1" as="geometry">
            <mxPoint x="760" y="1310" as="sourcePoint" />
            <mxPoint x="820" y="1270" as="targetPoint" />
          </mxGeometry>
        </mxCell>
        <mxCell id="db7fz8IDNrDX2FohNWl7-231" value="" style="shape=filledEdge;rounded=0;fixDash=1;endArrow=none;strokeWidth=10;fillColor=#ffffff;edgeStyle=orthogonalEdgeStyle;" parent="1" source="db7fz8IDNrDX2FohNWl7-143" target="db7fz8IDNrDX2FohNWl7-178" edge="1">
          <mxGeometry width="60" height="40" relative="1" as="geometry">
            <mxPoint x="660" y="1270" as="sourcePoint" />
            <mxPoint x="720" y="1230" as="targetPoint" />
            <Array as="points">
              <mxPoint x="1140" y="1525" />
              <mxPoint x="1140" y="1315" />
            </Array>
          </mxGeometry>
        </mxCell>
        <mxCell id="db7fz8IDNrDX2FohNWl7-232" value="" style="points=[];aspect=fixed;html=1;align=center;shadow=0;dashed=0;image;image=img/lib/allied_telesis/security/DVS_Surveillance_Monitor.svg;" parent="1" vertex="1">
          <mxGeometry x="161.14999999999998" y="1164.5" width="108.85" height="155.5" as="geometry" />
        </mxCell>
        <mxCell id="db7fz8IDNrDX2FohNWl7-208" value="" style="points=[];aspect=fixed;html=1;align=center;shadow=0;dashed=0;image;image=img/lib/allied_telesis/security/DVS_Surveillance_Monitor.svg;" parent="1" vertex="1">
          <mxGeometry x="261.15" y="1224.5" width="108.85" height="155.5" as="geometry" />
        </mxCell>
      </root>
    </mxGraphModel>
  </diagram>
</mxfile>
